Exact Audio Copy V0.99 prebeta 5 from 4. May 2009

Отчёт EAC об извлечении, выполненном 20. марта 2011, 10:44

Avril Lavigne / Goodbye Lullaby (Deluxe Edition)

Дисковод: Optiarc DVD RW AD-7200S   Adapter: 3  ID: 0

Режим чтения                 : Достоверность
Использование точного потока : Да
Отключение кэша аудио        : Да
Использование указателей C2  : Нет

Коррекция смещения при чтении                     : 48
Способность читать области Lead-in и Lead-out     : Нет
Заполнение пропущенных сэмплов тишиной            : Да
Удаление блоков с тишиной в начале и конце        : Нет
При вычислениях CRC использовались нулевые сэмплы : Да
Интерфейс                                         : Встроенный Win32-интерфейс для Win NT/2000
Обработка зазоров                                 : Добавлено к предыдущему треку

Выходной формат          : Пользовательский кодировщик
Выбранный битрейт        : 1024 kBit/s
Качество                 : Высокий
Добавление ID3-тэга      : Нет
Утилита сжатия           : C:\Program Files\Exact Audio Copy\Flac\flac.exe
Дополнительные параметры : -8 -V -T "ARTIST=%a" -T "TITLE=%t" -T "ALBUM=%g" -T "DATE=%y" -T "TRACKNUMBER=%n" -T "GENRE=%m" -T "COMMENT=EAC Test & Copy" %s


TOC извлечённого CD

     Трек |   Старт  | Длительность | Начальный сектор | Конечный сектор 
    ---------------------------------------------------------------------
       1  |  0:00.00 |    1:34.07   |           0      |       7056      
       2  |  1:34.07 |    3:40.47   |        7057      |      23603      
       3  |  5:14.54 |    3:01.22   |       23604      |      37200      
       4  |  8:16.01 |    3:45.51   |       37201      |      54126      
       5  | 12:01.52 |    3:29.34   |       54127      |      69835      
       6  | 15:31.11 |    3:27.20   |       69836      |      85380      
       7  | 18:58.31 |    4:01.71   |       85381      |     103526      
       8  | 23:00.27 |    3:41.58   |      103527      |     120159      
       9  | 26:42.10 |    4:18.47   |      120160      |     139556      
      10  | 31:00.57 |    3:28.26   |      139557      |     155182      
      11  | 34:29.08 |    3:50.37   |      155183      |     172469      
      12  | 38:19.45 |    5:00.37   |      172470      |     195006      
      13  | 43:20.07 |    3:29.15   |      195007      |     210696      
      14  | 46:49.22 |    4:32.13   |      210697      |     231109      
      15  | 51:21.35 |    3:40.61   |      231110      |     247670      
      16  | 55:02.21 |    2:46.00   |      247671      |     260120      
      17  | 57:48.21 |    3:45.70   |      260121      |     277065      
      18  | 61:34.16 |    2:52.15   |      277066      |     289980      
      19  | 64:26.31 |    2:42.16   |      289981      |     302146      


Трек  1

     Имя файла C:\01._Black_Star.wav

     Длина предзазора  0:00:02.00

     Пиковый уровень 97.2 %
     Качество трека 100.0 %
     CRC теста CA689F92
     CRC копии CA689F92
     Точное извлечение (достоверность 2)  [0282C025]
     Копирование... OK

Трек  2

     Имя файла C:\02._What_The_Hell.wav

     Пиковый уровень 96.1 %
     Качество трека 100.0 %
     CRC теста 16F71000
     CRC копии 16F71000
     Точное извлечение (достоверность 2)  [FA974406]
     Копирование... OK

Трек  3

     Имя файла C:\03._Push.wav

     Пиковый уровень 97.7 %
     Качество трека 99.9 %
     CRC теста 13484F60
     CRC копии 13484F60
     Точное извлечение (достоверность 2)  [F2C21770]
     Копирование... OK

Трек  4

     Имя файла C:\04._Wish_You_Were_Here.wav

     Пиковый уровень 97.7 %
     Качество трека 100.0 %
     CRC теста F6D2F32C
     CRC копии F6D2F32C
     Точное извлечение (достоверность 2)  [FA657D94]
     Копирование... OK

Трек  5

     Имя файла C:\05._Smile.wav

     Пиковый уровень 97.7 %
     Качество трека 100.0 %
     CRC теста 8E8B892D
     CRC копии 8E8B892D
     Точное извлечение (достоверность 2)  [BE42D54D]
     Копирование... OK

Трек  6

     Имя файла C:\06._Stop_Standing_There.wav

     Пиковый уровень 100.0 %
     Качество трека 100.0 %
     CRC теста 2CC0A32E
     CRC копии 2CC0A32E
     Точное извлечение (достоверность 2)  [99EF02B0]
     Копирование... OK

Трек  7

     Имя файла C:\07._I_Love_You.wav

     Пиковый уровень 96.1 %
     Качество трека 99.9 %
     CRC теста E37BF88D
     CRC копии E37BF88D
     Точное извлечение (достоверность 2)  [BC8EBEE3]
     Копирование... OK

Трек  8

     Имя файла C:\08._Everybody_Hurts.wav

     Пиковый уровень 100.0 %
     Качество трека 100.0 %
     CRC теста 8A9C8BD7
     CRC копии 8A9C8BD7
     Точное извлечение (достоверность 2)  [8B41D2F7]
     Копирование... OK

Трек  9

     Имя файла C:\09._Not_Enough.wav

     Пиковый уровень 97.7 %
     Качество трека 100.0 %
     CRC теста 71F8A8AE
     CRC копии 71F8A8AE
     Точное извлечение (достоверность 2)  [982386B0]
     Копирование... OK

Трек 10

     Имя файла C:\10._4_Real.wav

     Пиковый уровень 100.0 %
     Качество трека 100.0 %
     CRC теста 601A10AD
     CRC копии 601A10AD
     Точное извлечение (достоверность 2)  [46B9EFE4]
     Копирование... OK

Трек 11

     Имя файла C:\11._Darlin.wav

     Пиковый уровень 100.0 %
     Качество трека 100.0 %
     CRC теста DE583EEF
     CRC копии DE583EEF
     Точное извлечение (достоверность 2)  [CDCC6D5F]
     Копирование... OK

Трек 12

     Имя файла C:\12._Alice_(Extended_Version).wav

     Пиковый уровень 97.2 %
     Качество трека 99.9 %
     CRC теста 7DF7E195
     CRC копии 7DF7E195
     Точное извлечение (достоверность 2)  [AC1B7C1F]
     Копирование... OK

Трек 13

     Имя файла C:\13._Remember_When.wav

     Пиковый уровень 97.7 %
     Качество трека 99.9 %
     CRC теста 9D32DDB7
     CRC копии 9D32DDB7
     Точное извлечение (достоверность 2)  [54EE8FAD]
     Копирование... OK

Трек 14

     Имя файла C:\14._Goodbye.wav

     Пиковый уровень 100.0 %
     Качество трека 100.0 %
     CRC теста 623C7EB1
     CRC копии 623C7EB1
     Точное извлечение (достоверность 2)  [7576D8C8]
     Копирование... OK

Трек 15

     Имя файла C:\15._What_The_Hell_(Acoustic).wav

     Пиковый уровень 97.7 %
     Качество трека 99.9 %
     CRC теста AF6E4249
     CRC копии AF6E4249
     Точное извлечение (достоверность 2)  [75E98736]
     Копирование... OK

Трек 16

     Имя файла C:\16._Push_(Acoustic).wav

     Пиковый уровень 97.7 %
     Качество трека 100.0 %
     CRC теста 38965346
     CRC копии 38965346
     Точное извлечение (достоверность 2)  [465A7AF3]
     Копирование... OK

Трек 17

     Имя файла C:\17._Wish_You_Were_Here_(Acoustic).wav

     Пиковый уровень 97.7 %
     Качество трека 100.0 %
     CRC теста 7019DC3B
     CRC копии 7019DC3B
     Точное извлечение (достоверность 2)  [F4057AF3]
     Копирование... OK

Трек 18

     Имя файла C:\18._Knockin'_On_Heaven's_Door.wav

     Пиковый уровень 97.7 %
     Качество трека 100.0 %
     CRC теста 03AFAF13
     CRC копии 03AFAF13
     Точное извлечение (достоверность 2)  [55195704]
     Копирование... OK

Трек 19

     Имя файла C:\19._Bad_Reputation.wav

     Пиковый уровень 100.0 %
     Качество трека 100.0 %
     CRC теста F874C9AD
     CRC копии F874C9AD
     Точное извлечение (достоверность 2)  [F10A5BBE]
     Копирование... OK


Все треки извлечены точно

Ошибок не произошло

Конец отчёта
